<svg xmlns="http://www.w3.org/2000/svg" xmlns:xlink="http://www.w3.org/1999/xlink" viewBox="7830 -3814 91.828 91.828">
  <defs>
    <style>
      .cls-1 {
        fill: #fdcc34;
      }

      .cls-2 {
        clip-path: url(#clip-path);
      }

      .cls-3 {
        fill: #31f7e4;
      }

      .cls-4 {
        clip-path: url(#clip-path-2);
      }

      .cls-5 {
        fill: #ff398a;
      }

      .cls-6 {
        fill: #fd5a4c;
      }
    </style>
    <clipPath id="clip-path">
      <path id="Path_196" data-name="Path 196" d="M44.9,86.8A41.2,41.2,0,1,1,86.1,45.6,41.257,41.257,0,0,1,44.9,86.8Zm0-76.2a35,35,0,1,0,34.871,35A35.061,35.061,0,0,0,44.9,10.6Z" transform="translate(-3.7 -4.4)"/>
    </clipPath>
    <clipPath id="clip-path-2">
      <path id="Path_198" data-name="Path 198" class="cls-1" d="M44.9,86.8A41.2,41.2,0,1,1,86.1,45.6,41.257,41.257,0,0,1,44.9,86.8Zm0-76.2a35,35,0,1,0,34.871,35A35.061,35.061,0,0,0,44.9,10.6Z" transform="translate(-3.7 -4.4)"/>
    </clipPath>
  </defs>
  <g id="Group_184" data-name="Group 184" transform="matrix(0.993, -0.122, 0.122, 0.993, 7825.792, -3807.874)">
    <g id="Group_180" data-name="Group 180" class="cls-2" transform="translate(3.7 4.4)">
      <path id="Path_195" data-name="Path 195" class="cls-3" d="M80.939,80.289H38.249L31.3,60.682,38.249,37.6H80.939Z" transform="translate(2.951 3.6)"/>
    </g>
    <g id="Group_181" data-name="Group 181" class="cls-4" transform="translate(3.7 4.4)">
      <path id="Path_197" data-name="Path 197" class="cls-1" d="M50.012,5.46A13.682,13.682,0,0,0,37.478,17.622c-1.613,10.8-6.7,17.994-7.942,20.228S5.958,52.989.87,46.784,14.52,6.453,15.513,6.949,51.129,0,51.129,0Z" transform="translate(-4.593 -5.46)"/>
    </g>
    <g id="Group_182" data-name="Group 182" class="cls-2" transform="translate(3.7 4.4)">
      <path id="Path_199" data-name="Path 199" class="cls-5" d="M81.883,42.372S75.306,60.118,69.6,49.818,57.312,30.335,56.94,30.211,38.2,21.152,38.2,21.152l-6.7-9.183s1.986-5.336,9.307-6.825c0,0,13.4-4.343,14.271-4.343S72.2,6.384,73.2,8.122,81.883,42.372,81.883,42.372Z" transform="translate(2.999 -5.267)"/>
    </g>
    <g id="Group_183" data-name="Group 183" class="cls-2" transform="translate(3.7 4.4)">
      <path id="Path_201" data-name="Path 201" class="cls-6" d="M3.393,34.9s7.446,4.84,6.7,3.351c0,0,1.986,7.2,2.606,7.322S45.089,73.246,45.089,73.246s9.431,7.694-6.081,8.314a32.833,32.833,0,0,1-24.7-9.928S2.4,57.237,2.4,56,3.393,34.9,3.393,34.9Z" transform="translate(-4.013 2.949)"/>
    </g>
  </g>
</svg>
