<svg xmlns="http://www.w3.org/2000/svg" viewBox="6194 -3757 22 18.814">
  <defs>
    <style>
      .cls-1 {
        fill: #31f7e4;
      }
    </style>
  </defs>
  <g id="Group_530" data-name="Group 530" transform="translate(5901 -4384)">
    <path id="Path_551" data-name="Path 551" class="cls-1" d="M17.684,54.3a.445.445,0,0,1-.288-.106l-4.459-3.78H3.058A3.07,3.07,0,0,1,0,47.336V38.558a3.07,3.07,0,0,1,3.058-3.075H18.942A3.07,3.07,0,0,1,22,38.558v8.777a3.07,3.07,0,0,1-3.058,3.075H18.13v3.437a.449.449,0,0,1-.258.407A.444.444,0,0,1,17.684,54.3ZM3.058,36.381A2.174,2.174,0,0,0,.893,38.558v8.777a2.174,2.174,0,0,0,2.165,2.177H13.1a.445.445,0,0,1,.288.106l3.849,3.263v-2.92a.448.448,0,0,1,.447-.449h1.258a2.174,2.174,0,0,0,2.165-2.177V38.558a2.174,2.174,0,0,0-2.165-2.177Z" transform="translate(293 591.517)"/>
  </g>
</svg>
