<svg xmlns="http://www.w3.org/2000/svg" viewBox="10821 -3838.257 28.029 28.029">
  <defs>
    <style>
      .cls-1 {
        fill: #2e2e2e;
        fill-rule: evenodd;
      }
    </style>
  </defs>
  <path id="Path_576" data-name="Path 576" class="cls-1" d="M6.307,7.406a.779.779,0,1,0,1.1-1.1L5.2,4.1a.779.779,0,0,0-1.1,1.1ZM4.672,14.015a.777.777,0,0,0-.779-.779H.779a.779.779,0,1,0,0,1.557H3.893A.779.779,0,0,0,4.672,14.015Zm1.635,6.608-2.2,2.2a.778.778,0,0,0,1.1,1.1l2.2-2.2a.776.776,0,1,0-1.1-1.1ZM14.014,4.672a.777.777,0,0,0,.779-.779V.779a.779.779,0,0,0-1.557,0V3.89A.782.782,0,0,0,14.014,4.672Zm7.708,2.735,2.2-2.2a.78.78,0,0,0-1.1-1.1l-2.2,2.206a.779.779,0,1,0,1.1,1.1ZM14.014,7a7.007,7.007,0,1,0,7.007,7.007A7.009,7.009,0,0,0,14.014,7Zm0,12.461a5.45,5.45,0,1,1,5.45-5.45A5.451,5.451,0,0,1,14.014,19.465ZM27.25,13.233H24.136a.779.779,0,0,0,0,1.557H27.25a.779.779,0,0,0,0-1.557Zm-5.528,7.39a.779.779,0,0,0-1.1,1.1l2.2,2.2a.779.779,0,1,0,1.1-1.1Zm-7.708,2.732a.779.779,0,0,0-.779.779V27.25a.779.779,0,0,0,1.557,0V24.136A.779.779,0,0,0,14.014,23.354Z" transform="translate(10821 -3838.257)"/>
</svg>
