<svg xmlns="http://www.w3.org/2000/svg" viewBox="10885 -3835.31 28.029 23.358">
  <defs>
    <style>
      .cls-1 {
        fill: #020400;
        fill-rule: evenodd;
      }
    </style>
  </defs>
  <g id="levels" transform="translate(10885 -3835.31)">
    <g id="Group_565" data-name="Group 565" transform="translate(0 0)">
      <path id="Path_575" data-name="Path 575" class="cls-1" d="M26.472.72H1.557A1.558,1.558,0,0,0,0,2.277V22.52a1.558,1.558,0,0,0,1.557,1.557H26.472a1.558,1.558,0,0,0,1.557-1.557V2.277A1.558,1.558,0,0,0,26.472.72ZM1.557,2.277H26.472v7.786c-16.632-3.848-9.21,8.551-24.915,4.672ZM26.472,22.52H1.557V16.292C16.886,20.055,11.251,7.8,26.472,11.62a4.45,4.45,0,0,1,0-.506Z" transform="translate(0 -0.72)"/>
    </g>
  </g>
</svg>
