<svg xmlns="http://www.w3.org/2000/svg" viewBox="10954 -3837.468 24.851 29.798">
  <defs>
    <style>
      .cls-1 {
        fill: #007aff;
      }
    </style>
  </defs>
  <g id="Group_811" data-name="Group 811" transform="translate(10747 -4381)">
    <path id="Path_576" data-name="Path 576" class="cls-1" d="M14.8,8.258a4.143,4.143,0,1,0,4.143-4.143A4.141,4.141,0,0,0,14.8,8.258Zm4.143-2.489a2.488,2.488,0,1,1-2.486,2.489A2.485,2.485,0,0,1,18.947,5.769ZM23.919,11.2a5.8,5.8,0,0,1-1.136,1.378A10.768,10.768,0,1,1,5.531,9.757l7.616-7.413,1.788,1.74A5.817,5.817,0,0,1,16.327,3.1L13.147,0,4.357,8.579A12.43,12.43,0,1,0,23.919,11.2Z" transform="translate(206.283 543.532)"/>
  </g>
</svg>
