<svg xmlns="http://www.w3.org/2000/svg" viewBox="11032 -3839.836 29.826 29.83">
  <defs>
    <style>
      .cls-1 {
        fill: #007aff;
      }
    </style>
  </defs>
  <g id="Group_812" data-name="Group 812" transform="translate(10747 -4381)">
    <path id="Path_581" data-name="Path 581" class="cls-1" d="M28.172,0H1.657A1.658,1.658,0,0,0,0,1.657V28.172A1.658,1.658,0,0,0,1.657,29.83H28.172a1.655,1.655,0,0,0,1.654-1.661V1.657A1.652,1.652,0,0,0,28.172,0ZM1.657,1.657H8.1A14.958,14.958,0,0,0,1.657,8.1Zm0,26.515V21.727A14.969,14.969,0,0,0,8.1,28.169H1.657Zm26.515,0H21.727a14.958,14.958,0,0,0,6.446-6.446Zm-13.254,0A13.258,13.258,0,1,1,28.176,14.915,13.26,13.26,0,0,1,14.918,28.172ZM28.172,8.1a14.94,14.94,0,0,0-6.446-6.446h6.446Z" transform="translate(285 541.164)"/>
  </g>
</svg>
