<svg xmlns="http://www.w3.org/2000/svg" viewBox="10364 -3761 35.551 33.099">
  <defs>
    <style>
      .cls-1 {
        fill: #007aff;
      }
    </style>
  </defs>
  <g id="Group_595" data-name="Group 595" transform="translate(10322 -4381)">
    <path id="Path_206" data-name="Path 206" class="cls-1" d="M27.951,22.892a10.417,10.417,0,1,1-10.176,17.4A10.416,10.416,0,1,1,7.6,22.892a10.418,10.418,0,1,1,20.35,0Zm6.381,10.028a9.215,9.215,0,0,0-6.713-8.855,10.46,10.46,0,0,1-7.025,6.622,10.385,10.385,0,0,1-2.007,8.689,9.194,9.194,0,0,0,15.745-6.455ZM26.76,22.63a9.2,9.2,0,1,0-17.969,0,10.4,10.4,0,0,1,8.985,2.921A10.4,10.4,0,0,1,26.76,22.63Zm-.341,1.183a9.157,9.157,0,0,0-7.832,2.651,10.416,10.416,0,0,1,1.676,3.05A9.241,9.241,0,0,0,26.419,23.813Zm-6.8,9.108a9.145,9.145,0,0,0-.215-1.971,10.41,10.41,0,0,1-3.256,0,9.181,9.181,0,0,0,1.628,7.488A9.155,9.155,0,0,0,19.619,32.921Zm-.558-3.154A9.184,9.184,0,0,0,17.775,27.4a9.184,9.184,0,0,0-1.286,2.363,9.012,9.012,0,0,0,2.571,0Zm-3.772-.253a10.388,10.388,0,0,1,1.676-3.05,9.157,9.157,0,0,0-7.832-2.651A9.238,9.238,0,0,0,15.289,29.514Zm1.676,9.862a10.37,10.37,0,0,1-2.007-8.689,10.457,10.457,0,0,1-7.025-6.622,9.2,9.2,0,1,0,9.032,15.311Z" transform="translate(42 609.76)"/>
  </g>
</svg>
