<svg xmlns="http://www.w3.org/2000/svg" viewBox="6125 -3758 22.071 19.864">
  <defs>
    <style>
      .cls-1 {
        fill: #fd5a4c;
      }
    </style>
  </defs>
  <path id="heart" class="cls-1" d="M21.694,4.38A6.021,6.021,0,0,0,16.739.5a6.364,6.364,0,0,0-4.624,1.44l-1.1.886h0l-.991-.886A6.251,6.251,0,0,0,5.288.5,5.988,5.988,0,0,0,.334,4.269a6.7,6.7,0,0,0,0,4.43,15.347,15.347,0,0,0,2.2,4.208,35.3,35.3,0,0,0,8.478,7.42h0a33.689,33.689,0,0,0,8.478-7.53,12.844,12.844,0,0,0,2.2-4.208A6.977,6.977,0,0,0,21.694,4.38ZM20.483,8.92a12.1,12.1,0,0,1-2.092,3.654,30.383,30.383,0,0,1-7.377,6.534h0a30.383,30.383,0,0,1-7.377-6.534A12.1,12.1,0,0,1,1.545,8.92a5.47,5.47,0,0,1-.22-3.987A4.8,4.8,0,0,1,5.839,1.611,6,6,0,0,1,9.913,3.273l1.1,1.218h0l1.1-1.218a6,6,0,0,1,4.074-1.661A4.693,4.693,0,0,1,20.7,4.934,5.47,5.47,0,0,1,20.483,8.92Z" transform="translate(6125.035 -3758.462)"/>
</svg>
