<svg xmlns="http://www.w3.org/2000/svg" viewBox="6668.292 -4055 13.329 11.996">
  <defs>
    <style>
      .cls-1 {
        fill: #0084ff;
      }
    </style>
  </defs>
  <path id="heart" class="cls-1" d="M13.087,2.828A3.636,3.636,0,0,0,10.1.488,3.843,3.843,0,0,0,7.3,1.357l-.665.535h0l-.6-.535A3.775,3.775,0,0,0,3.18.488,3.616,3.616,0,0,0,.188,2.761a4.043,4.043,0,0,0,0,2.675,9.268,9.268,0,0,0,1.33,2.541,21.32,21.32,0,0,0,5.12,4.481h0a20.345,20.345,0,0,0,5.12-4.548,7.757,7.757,0,0,0,1.33-2.541A4.213,4.213,0,0,0,13.087,2.828ZM12.356,5.57a7.307,7.307,0,0,1-1.263,2.207,18.348,18.348,0,0,1-4.455,3.946h0A18.348,18.348,0,0,1,2.183,7.777,7.307,7.307,0,0,1,.919,5.57,3.3,3.3,0,0,1,.786,3.163,2.9,2.9,0,0,1,3.512,1.156a3.624,3.624,0,0,1,2.46,1l.665.736h0L7.3,2.159a3.624,3.624,0,0,1,2.46-1,2.834,2.834,0,0,1,2.726,2.006A3.3,3.3,0,0,1,12.356,5.57Z" transform="translate(6668.326 -4055.462)"/>
</svg>
