<svg xmlns="http://www.w3.org/2000/svg" viewBox="6575 -3752 22.072 19.864">
  <defs>
    <style>
      .cls-1 {
        fill: #fd5a4c;
      }
    </style>
  </defs>
  <path id="Union_18" data-name="Union 18" class="cls-1" d="M-6345.43,4393.444a15.39,15.39,0,0,1-2.2-4.208,6.694,6.694,0,0,1,0-4.431,5.989,5.989,0,0,1,4.955-3.765,6.25,6.25,0,0,1,4.733,1.44l.993.886,1.1-.886a6.367,6.367,0,0,1,4.625-1.44,6.024,6.024,0,0,1,4.955,3.876,6.973,6.973,0,0,1,0,4.208,12.875,12.875,0,0,1-2.2,4.209,33.714,33.714,0,0,1-8.478,7.529A35.307,35.307,0,0,1-6345.43,4393.444Z" transform="translate(12923 -8133)"/>
</svg>
