<svg xmlns="http://www.w3.org/2000/svg" viewBox="7995.389 -3782 16.056 32.024">
  <defs>
    <style>
      .cls-1 {
        fill: #007aff;
      }
    </style>
  </defs>
  <g id="Group_569" data-name="Group 569" transform="translate(7995.389 -3782)">
    <path id="Path_579" data-name="Path 579" class="cls-1" d="M17.315,15.09H5.2L17.909,1.518A.889.889,0,0,0,16.652.261L2.453,15.32a.882.882,0,0,0-.26.623c0,.015-.007.026-.007.041v0c0-1.19-.3.894.89.894H15.194L2.482,30.5a.9.9,0,0,0,0,1.265.886.886,0,0,0,1.257,0l14.2-15.111a1.149,1.149,0,0,0,.263-.679A.893.893,0,0,0,17.315,15.09Zm.886.883s0,.007,0,.011v0c0-.189.007-.137,0-.015Z" transform="translate(-2.152 0.001)"/>
  </g>
</svg>
