<svg xmlns="http://www.w3.org/2000/svg" viewBox="6156 -3759 29.201 21.367">
  <defs>
    <style>
      .cls-1 {
        fill: #fdcc34;
      }
    </style>
  </defs>
  <g id="Group_801" data-name="Group 801" transform="translate(5901 -4381)">
    <path id="Path_547" data-name="Path 547" class="cls-1" d="M3.726,25.284C2.1,25.284.881,24.85.3,23.85c-.987-1.711.463-4.539,3.978-7.76a.5.5,0,0,1,.676.738c-3,2.749-4.488,5.309-3.788,6.521,1.1,1.9,7.836.841,15.747-3.726s12.2-9.871,11.1-11.774c-.7-1.211-3.659-1.2-7.538.017a.5.5,0,1,1-.3-.953c4.546-1.432,7.718-1.272,8.7.437,1.833,3.176-4.539,9.141-11.466,13.14C12.67,23.23,7.255,25.284,3.726,25.284Z" transform="translate(255 618.083)"/>
    <path id="Path_548" data-name="Path 548" class="cls-1" d="M7.272,19.488a2.3,2.3,0,0,1-2.162-.921.5.5,0,1,1,.866-.5c.21.363,1.073.614,2.859.229a21.729,21.729,0,0,0,5.955-2.46c4.7-2.711,6.857-5.623,6.34-6.519a.5.5,0,0,1,.866-.5c1.128,1.955-2.613,5.521-6.707,7.884a22.72,22.72,0,0,1-6.244,2.572A8.5,8.5,0,0,1,7.272,19.488Z" transform="translate(255 618.083)"/>
    <path id="Path_549" data-name="Path 549" class="cls-1" d="M5.451,18.871a.5.5,0,0,1-.434-.25A9.8,9.8,0,0,1,22,8.817a.5.5,0,0,1-.866.5,8.8,8.8,0,0,0-15.248,8.8A.5.5,0,0,1,5.7,18.8.492.492,0,0,1,5.451,18.871Z" transform="translate(255 618.083)"/>
    <path id="Path_550" data-name="Path 550" class="cls-1" d="M14.251,24.81a9.82,9.82,0,0,1-4.3-.993.5.5,0,1,1,.437-.9A8.805,8.805,0,0,0,23.032,15.61a.507.507,0,0,1,.534-.465.5.5,0,0,1,.464.533,9.811,9.811,0,0,1-9.779,9.132Z" transform="translate(255 618.083)"/>
  </g>
</svg>
