<svg xmlns="http://www.w3.org/2000/svg" viewBox="6606 -3753.001 29.199 21.367">
  <defs>
    <style>
      .cls-1 {
        fill: #fdcc34;
      }
    </style>
  </defs>
  <path id="Union_17" data-name="Union 17" class="cls-1" d="M-6347.7,4400.934c-.966-1.674.4-4.415,3.746-7.547a9.818,9.818,0,0,1,4.555-11.072,9.813,9.813,0,0,1,11.872,1.59c4.386-1.332,7.442-1.142,8.4.529,1.208,2.09-1.144,5.392-4.869,8.545a9.789,9.789,0,0,1-4.861,7.6,9.777,9.777,0,0,1-4.9,1.314,9.831,9.831,0,0,1-4.112-.9,20.177,20.177,0,0,1-6.413,1.377C-6345.9,4402.367-6347.12,4401.933-6347.7,4400.934Z" transform="translate(12954 -8134)"/>
</svg>
