<svg xmlns="http://www.w3.org/2000/svg" xmlns:xlink="http://www.w3.org/1999/xlink" viewBox="5771 572 34.903 33.155">
  <defs>
    <style>
      .cls-1 {
        fill: #fff;
      }

      .cls-2 {
        filter: url(#Path_77);
      }
    </style>
    <filter id="Path_77" x="5771" y="572" width="34.903" height="33.155" filterUnits="userSpaceOnUse">
      <feOffset dy="3" input="SourceAlpha"/>
      <feGaussianBlur stdDeviation="3" result="blur"/>
      <feFlood flood-color="#fff" flood-opacity="0.161"/>
      <feComposite operator="in" in2="blur"/>
      <feComposite in="SourceGraphic"/>
    </filter>
  </defs>
  <g class="cls-2" transform="matrix(1, 0, 0, 1, 0, 0)">
    <path id="Path_77-2" data-name="Path 77" class="cls-1" d="M23.34,16.611a4.534,4.534,0,0,0-4.42-3.982A6.738,6.738,0,0,0,15.026,14.1,6.67,6.67,0,0,0,11.1,12.6a4.539,4.539,0,0,0-4.42,4.026c-.7,3.632,1.546,8.46,8.124,11.085a.569.569,0,0,0,.438,0C21.808,25.027,24.04,20.214,23.34,16.611Zm-8.314,9.9c-5.776-2.392-7.774-6.564-7.176-9.671A3.408,3.408,0,0,1,11.1,13.781a5.809,5.809,0,0,1,3.544,1.532.593.593,0,0,0,.744,0,5.864,5.864,0,0,1,3.53-1.488,3.389,3.389,0,0,1,3.253,3.019c.6,3.078-1.386,7.235-7.147,9.671Z" transform="translate(5773.44 565.4)"/>
  </g>
</svg>
