<svg xmlns="http://www.w3.org/2000/svg" viewBox="6216 418 41.7 41.7">
  <defs>
    <style>
      .cls-1 {
        fill: #c9c9c9;
      }

      .cls-2 {
        fill: #262626;
        stroke: #262626;
      }
    </style>
  </defs>
  <g id="Group_292" data-name="Group 292" transform="translate(5900 209)">
    <path id="Path_74" data-name="Path 74" class="cls-1" d="M6.336,47.086h0c0,.036,0,.036.036.036.036.072.072.18.108.251,0,.036.036.036.036.072s.036.036.036.072l.036.036c.036.072.108.108.144.18l.036.036.072.072a.035.035,0,0,1,.036.036c.036.036.072.036.108.072l.036.036a.035.035,0,0,1,.036.036c.036.036.108.036.144.072.036,0,.036,0,.072.036a.125.125,0,0,1,.072.036,1,1,0,0,0,.323.036H46.527A1.457,1.457,0,0,0,48,46.727V7.973A1.457,1.457,0,0,0,46.527,6.5H7.773A1.457,1.457,0,0,0,6.3,7.973V46.655c0,.108.036.251.036.359v.072Zm38.827-1.868H12.693l23.993-15.7L45.162,37.6ZM9.245,9.445H45.162v24.1l-7.291-6.968a1.517,1.517,0,0,0-1.832-.18l-6.86,4.526L24.4,26.111a1.474,1.474,0,0,0-1.832-.216L9.245,34.3V9.445Zm0,28.339,13.9-8.764,3.52,3.556L9.245,43.962Z" transform="translate(309.7 202.5)"/>
    <path id="Path_300" data-name="Path 300" class="cls-2" d="M26.611,19.513H20.369v-5.97a.543.543,0,0,0-1.085,0v5.97H13.043a.543.543,0,0,0,0,1.085h6.241v6.513a.543.543,0,0,0,1.085,0V20.6h6.241a.543.543,0,1,0,0-1.085Z" transform="translate(317 209.5)"/>
  </g>
</svg>
