<svg xmlns="http://www.w3.org/2000/svg" viewBox="8310.344 -3970 13.488 20.233">
  <defs>
    <style>
      .cls-1 {
        fill: #fdcc34;
      }
    </style>
  </defs>
  <path id="Path_165" data-name="Path 165" class="cls-1" d="M86.1.033q-.461.033-.9.059-1.95.118-2.819.118-.448,0-.962-.026L77.252,0,77,1.357a4.861,4.861,0,0,0,.5.053,4.993,4.993,0,0,1,1.9.369v.5l-.105.658L79,4.716l-.211.83-.382,2.068a1.343,1.343,0,0,1-.046.152q-.046.138-.118.4t-.165.613q-.092.349-.211.883t-.224,1.113l-.158.843-.738,3.53L76.4,16.979a3.039,3.039,0,0,1-.54,1.33,7.815,7.815,0,0,1-1.528.514l-1.014.263-.224,1.12q.316-.026,1.291-.119,1.752-.158,2.292-.145l2.608.026q1.659.171,1.91.224a2.658,2.658,0,0,0,.369.039q.237,0,.553-.026a2.08,2.08,0,0,1,.3-.013q.026-.132.119-.54a4.583,4.583,0,0,0,.092-.764q-.4-.066-.87-.131a13.225,13.225,0,0,1-1.567-.277,1.017,1.017,0,0,1-.013-.356l.158-.593.566-3.1.5-2.081.8-4.1q.289-1.409.87-4.031.053-.5.171-1.08a7.891,7.891,0,0,1,.316-1.159,10.439,10.439,0,0,1,1.33-.408,13.046,13.046,0,0,0,1.436-.408Q86.406.883,86.5.5a4.812,4.812,0,0,0,.079-.5Z" transform="translate(8237.255 -3970)"/>
</svg>
