<svg xmlns="http://www.w3.org/2000/svg" viewBox="8239.478 -3970 18.546 20.233">
  <defs>
    <style>
      .cls-1 {
        fill: #fd5a4c;
      }
    </style>
  </defs>
  <path id="Path_166" data-name="Path 166" class="cls-1" d="M35.612,10.867a6.358,6.358,0,0,0-3.517-1.923A14.335,14.335,0,0,0,34.071,7.93a4.384,4.384,0,0,0,1.251-1.383,3.432,3.432,0,0,0,.421-1.686,4.609,4.609,0,0,0-.277-1.607,4.033,4.033,0,0,0-.856-1.37,4.971,4.971,0,0,0-1.344-1A8.521,8.521,0,0,0,32,.369,9.963,9.963,0,0,0,29.487.013h-.975q-.263,0-.534-.007L27.7,0c-.044,0-.105,0-.185.007s-.141.007-.185.007l-.593.013L21.728.2,18.3.277l.053,1.093q1.106.145,1.5.171a2.013,2.013,0,0,1,.909.2q.145.106.158.158a4.712,4.712,0,0,1,.145,1.436q.053,1.95.118,5.322l.026,6.547a20.438,20.438,0,0,1-.118,2.555,1.852,1.852,0,0,1-.277.672,7.314,7.314,0,0,1-1.62.408q-.3.039-.9.158l-.026,1.238q3.148-.106,3.583-.145,2.819-.171,3.925-.145L28.38,20a12.384,12.384,0,0,0,2.608-.145,10.562,10.562,0,0,0,2.674-.791,6.21,6.21,0,0,0,1.844-1.423,4.373,4.373,0,0,0,.935-1.541,6.57,6.57,0,0,0,.382-2.121A4.627,4.627,0,0,0,35.612,10.867ZM25.3,1.528a10.765,10.765,0,0,1,1.712-.171,4.919,4.919,0,0,1,3.359.988,3.152,3.152,0,0,1,1.119,2.463,3.415,3.415,0,0,1-1.172,2.951,5.87,5.87,0,0,1-3.477.856A9.2,9.2,0,0,1,25.4,8.523q-.013-.448-.013-1.014L25.4,6.218q.013-2.068-.079-3.675Q25.3,2.108,25.3,1.528Zm6.586,15.214a3.378,3.378,0,0,1-1.607,1.489,6.55,6.55,0,0,1-2.845.54,4.787,4.787,0,0,1-1.844-.421,1.7,1.7,0,0,1-.158-.58l-.039-3.557.013-2.279v-1.9a4.444,4.444,0,0,1,1.33-.132,9.338,9.338,0,0,1,3.253.421,3.838,3.838,0,0,1,1.857,1.66,4.473,4.473,0,0,1,.54,2.371A4.982,4.982,0,0,1,31.884,16.742Z" transform="translate(8221.2 -3970)"/>
</svg>
