<svg xmlns="http://www.w3.org/2000/svg" viewBox="8452.572 -3974 28.653 28.653">
  <defs>
    <style>
      .cls-1 {
        fill: #ff398a;
      }
    </style>
  </defs>
  <g id="Group_537" data-name="Group 537" transform="translate(8136 -4381)">
    <circle id="Ellipse_49" data-name="Ellipse 49" class="cls-1" cx="1.629" cy="1.629" r="1.629" transform="translate(332.145 414.231)"/>
    <path id="Path_161" data-name="Path 161" class="cls-1" d="M6.325,34.388h0c0,.025,0,.025.025.025.025.049.049.123.074.173,0,.025.025.025.025.049s.025.025.025.049l.025.025c.025.049.074.074.1.123l.025.025.049.049a.024.024,0,0,1,.025.025c.025.025.049.025.074.049L6.794,35a.024.024,0,0,1,.025.025c.025.025.074.025.1.049.025,0,.025,0,.049.025a.086.086,0,0,1,.049.025.683.683,0,0,0,.222.025h26.7a1,1,0,0,0,1.012-1.012V7.512A1,1,0,0,0,33.941,6.5H7.312A1,1,0,0,0,6.3,7.512v26.58c0,.074.025.173.025.247v.049ZM33,33.1H10.693L27.179,22.32,33,27.873ZM8.324,8.524H33v16.56L27.993,20.3a1.043,1.043,0,0,0-1.259-.123l-4.714,3.11-3.282-3.307a1.013,1.013,0,0,0-1.259-.148L8.324,25.6V8.524ZM8.324,28l9.551-6.022,2.419,2.443L8.324,32.241Z" transform="translate(310.272 400.5)"/>
  </g>
</svg>
