<svg xmlns="http://www.w3.org/2000/svg" viewBox="5981.114 -4854.438 15.949 20.76">
  <defs>
    <style>
      .cls-1 {
        fill: #0084ff;
        opacity: 0.688;
      }
    </style>
  </defs>
  <path id="Path_18" data-name="Path 18" class="cls-1" d="M151.412,15.6h-.044V13.591a6.368,6.368,0,0,0-6.337-6.4,6.248,6.248,0,0,0-6.13,6.234v.192a.526.526,0,0,0,.524.524H141.1a.526.526,0,0,0,.524-.524v-.059A3.6,3.6,0,0,1,144.9,9.925a3.511,3.511,0,0,1,3.733,3.5V15.59h-5.164V15.6H138.7a1.646,1.646,0,0,0-1.6,1.638v9.074a1.647,1.647,0,0,0,1.645,1.645H151.4a1.647,1.647,0,0,0,1.645-1.645V17.243A1.636,1.636,0,0,0,151.412,15.6Zm-5.356,6.588a.354.354,0,0,0-.162.332c.007.664.007,1.328,0,2h0a.7.7,0,0,1-.376.671.78.78,0,0,1-1.166-.671V22.51a.348.348,0,0,0-.148-.317,1.516,1.516,0,0,1-.5-1.874,1.551,1.551,0,0,1,2.966.612A1.4,1.4,0,0,1,146.056,22.185Z" transform="translate(5844.014 -4861.633)"/>
</svg>
