<svg xmlns="http://www.w3.org/2000/svg" xmlns:xlink="http://www.w3.org/1999/xlink" viewBox="9294.92 -4363.815 47.628 47.075">
  <defs>
    <style>
      .cls-1 {
        fill: #fff;
      }

      .cls-2 {
        filter: url(#Path_41);
      }

      .cls-3 {
        filter: url(#Path_40);
      }
    </style>
    <filter id="Path_40" x="9294.945" y="-4336.803" width="47.603" height="20.063" filterUnits="userSpaceOnUse">
      <feOffset dy="3" input="SourceAlpha"/>
      <feGaussianBlur stdDeviation="3" result="blur"/>
      <feFlood flood-opacity="0.161"/>
      <feComposite operator="in" in2="blur"/>
      <feComposite in="SourceGraphic"/>
    </filter>
    <filter id="Path_41" x="9294.92" y="-4363.815" width="41.794" height="41.844" filterUnits="userSpaceOnUse">
      <feOffset dy="3" input="SourceAlpha"/>
      <feGaussianBlur stdDeviation="3" result="blur-2"/>
      <feFlood flood-opacity="0.161"/>
      <feComposite operator="in" in2="blur-2"/>
      <feComposite in="SourceGraphic"/>
    </filter>
  </defs>
  <g id="Group_17" data-name="Group 17" transform="translate(9303.92 -4357.816)">
    <g class="cls-3" transform="matrix(1, 0, 0, 1, -9303.92, 4357.82)">
      <path id="Path_40-2" data-name="Path 40" class="cls-1" d="M34.247,114.3H6.731A1.036,1.036,0,0,0,5.7,115.331a1.053,1.053,0,0,0,1.031,1.031H34.272a1.036,1.036,0,0,0,1.031-1.031A1.058,1.058,0,0,0,34.247,114.3Z" transform="translate(9298.25 -4445.1)"/>
    </g>
    <g class="cls-2" transform="matrix(1, 0, 0, 1, -9303.92, 4357.82)">
      <path id="Path_41-2" data-name="Path 41" class="cls-1" d="M5.625,24.783l-.025,4.9a1.065,1.065,0,0,0,.3.755,1.007,1.007,0,0,0,.729.3l4.879-.025a1.007,1.007,0,0,0,.729-.3L29.091,13.565a1.063,1.063,0,0,0,0-1.484L24.262,7.2a1.063,1.063,0,0,0-1.484,0l-3.37,3.4L5.927,24.053a1.12,1.12,0,0,0-.3.729ZM23.533,9.415l3.4,3.4-1.912,1.912-3.4-3.4,1.912-1.912ZM7.713,25.235,20.138,12.811l3.4,3.4-12.425,12.4-3.421.025.025-3.4Z" transform="translate(9298.32 -4364.72)"/>
    </g>
  </g>
</svg>
