<svg xmlns="http://www.w3.org/2000/svg" xmlns:xlink="http://www.w3.org/1999/xlink" viewBox="7373 -3776 55 55">
  <defs>
    <style>
      .cls-1 {
        fill: #00bb13;
      }

      .cls-2 {
        fill: #fefefe;
        fill-rule: evenodd;
      }

      .cls-3 {
        filter: url(#Path_399);
      }
    </style>
    <filter id="Path_399" x="7376.544" y="-3769.456" width="47.913" height="47.888" filterUnits="userSpaceOnUse">
      <feOffset dy="3" input="SourceAlpha"/>
      <feGaussianBlur stdDeviation="3" result="blur"/>
      <feFlood flood-opacity="0.161"/>
      <feComposite operator="in" in2="blur"/>
      <feComposite in="SourceGraphic"/>
    </filter>
  </defs>
  <g id="Group_805" data-name="Group 805" transform="translate(7242 -4381)">
    <circle id="green_circle" data-name="green circle" class="cls-1" cx="27.5" cy="27.5" r="27.5" transform="translate(131 605)"/>
    <g class="cls-3" transform="matrix(1, 0, 0, 1, -7242, 4381)">
      <path id="Path_399-2" data-name="Path 399" class="cls-2" d="M15.222,26.825A12.313,12.313,0,0,1,8.443,24.8l-4.728,1.5,1.52-4.559a12.163,12.163,0,0,1-2.364-7.189,9.717,9.717,0,0,1,.072-1.182,12.361,12.361,0,0,1,24.605.241c.024.338.024.651.024.941A12.344,12.344,0,0,1,15.222,26.825Zm6.73-9.311c-.386-.169-2.123-1.061-2.461-1.182-.362-.1-.579-.169-.82.193A11.489,11.489,0,0,1,17.537,17.9a.556.556,0,0,1-.772.1,9.164,9.164,0,0,1-2.895-1.785,9.742,9.742,0,0,1-2-2.461A.562.562,0,0,1,12.013,13a4.872,4.872,0,0,0,.555-.627.64.64,0,0,0,.121-.145,2.433,2.433,0,0,0,.217-.434.636.636,0,0,0-.024-.627c-.072-.169-.8-1.954-1.11-2.654-.289-.724-.6-.6-.8-.6-.217,0-.458-.024-.7-.024a1.188,1.188,0,0,0-.941.458,3.86,3.86,0,0,0-1.279,2.991,4.069,4.069,0,0,0,.193,1.206,8.517,8.517,0,0,0,1.279,2.485c.169.241,2.485,3.956,6.127,5.379,3.691,1.423,3.691.941,4.342.893a3.572,3.572,0,0,0,2.436-1.713,2.97,2.97,0,0,0,.193-1.713,2.485,2.485,0,0,0-.675-.362Zm7.936-3.3A14.668,14.668,0,0,0,.579,13.919a5.452,5.452,0,0,0-.024.627,14.524,14.524,0,0,0,2.1,7.526L0,29.888l8.129-2.581A14.715,14.715,0,0,0,29.912,14.546c0-.121-.024-.217-.024-.338Z" transform="translate(7385.54 -3763.46)"/>
    </g>
  </g>
</svg>
