<svg xmlns="http://www.w3.org/2000/svg" viewBox="6226 -3759 19.715 21.147">
  <defs>
    <style>
      .cls-1 {
        fill: #ff398a;
      }
    </style>
  </defs>
  <path id="_008-share" data-name="008-share" class="cls-1" d="M15.593,15.029a3.634,3.634,0,0,0-.489.613L8.91,11.882a3.544,3.544,0,0,0,0-2.647l6.2-3.731a3.6,3.6,0,1,0-.323-.642L8.578,8.6a3.585,3.585,0,1,0,0,3.922l6.2,3.765a3.582,3.582,0,1,0,.812-1.255ZM18.128.717A2.868,2.868,0,1,1,15.26,3.584,2.871,2.871,0,0,1,18.128.717ZM5.582,13.426a2.868,2.868,0,1,1,2.868-2.868A2.871,2.871,0,0,1,5.582,13.426Zm14.573,6.166A2.867,2.867,0,1,1,21,17.564,2.871,2.871,0,0,1,20.155,19.592Z" transform="translate(6224.003 -3759)"/>
</svg>
