<svg xmlns="http://www.w3.org/2000/svg" xmlns:xlink="http://www.w3.org/1999/xlink" viewBox="7438 -3776 55 55">
  <defs>
    <style>
      .cls-1 {
        fill: #4db1ff;
      }

      .cls-2 {
        fill: #fff;
        fill-rule: evenodd;
      }

      .cls-3 {
        filter: url(#Twitter_icon);
      }
    </style>
    <filter id="Twitter_icon" x="7442.509" y="-3765.596" width="45.528" height="40.369" filterUnits="userSpaceOnUse">
      <feOffset dy="3" input="SourceAlpha"/>
      <feGaussianBlur stdDeviation="3" result="blur"/>
      <feFlood flood-opacity="0.161"/>
      <feComposite operator="in" in2="blur"/>
      <feComposite in="SourceGraphic"/>
    </filter>
  </defs>
  <g id="Group_806" data-name="Group 806" transform="translate(7242 -4381)">
    <circle id="green_circle" data-name="green circle" class="cls-1" cx="27.5" cy="27.5" r="27.5" transform="translate(196 605)"/>
    <g class="cls-3" transform="matrix(1, 0, 0, 1, -7242, 4381)">
      <path id="Twitter_icon-2" data-name="Twitter icon" class="cls-2" d="M40.029,18.234a11.267,11.267,0,0,1-3.245.891A5.662,5.662,0,0,0,39.269,16a11.245,11.245,0,0,1-3.587,1.37,5.65,5.65,0,0,0-9.624,5.151,16.04,16.04,0,0,1-11.644-5.9,5.657,5.657,0,0,0,1.75,7.54,5.63,5.63,0,0,1-2.561-.705v.072a5.653,5.653,0,0,0,4.531,5.538,5.78,5.78,0,0,1-1.485.195,5.688,5.688,0,0,1-1.064-.1,5.651,5.651,0,0,0,5.276,3.92A11.337,11.337,0,0,1,13.848,35.5a11.163,11.163,0,0,1-1.348-.08,16,16,0,0,0,8.659,2.537c10.391,0,16.072-8.6,16.072-16.069,0-.244-.008-.488-.017-.729a11.426,11.426,0,0,0,2.815-2.926Z" transform="translate(7439.01 -3775.18)"/>
    </g>
  </g>
</svg>
