<svg xmlns="http://www.w3.org/2000/svg" viewBox="6692.5 -4055 13.286 11.362">
  <defs>
    <style>
      .cls-1 {
        fill: #0084ff;
      }
    </style>
  </defs>
  <path id="Path_551" data-name="Path 551" class="cls-1" d="M10.679,46.845a.269.269,0,0,1-.174-.064L7.813,44.5H1.847A1.854,1.854,0,0,1,0,42.641v-5.3a1.854,1.854,0,0,1,1.847-1.857h9.592a1.854,1.854,0,0,1,1.847,1.857v5.3A1.854,1.854,0,0,1,11.439,44.5h-.49v2.076a.271.271,0,0,1-.156.246A.268.268,0,0,1,10.679,46.845ZM1.847,36.025A1.313,1.313,0,0,0,.539,37.34v5.3a1.313,1.313,0,0,0,1.308,1.315H7.911a.269.269,0,0,1,.174.064L10.41,45.99V44.227a.27.27,0,0,1,.27-.271h.76a1.313,1.313,0,0,0,1.308-1.315v-5.3a1.313,1.313,0,0,0-1.308-1.315Z" transform="translate(6692.5 -4090.483)"/>
</svg>
