<svg xmlns="http://www.w3.org/2000/svg" viewBox="6370.5 -2128 45 45">
  <defs>
    <style>
      .cls-1 {
        fill: #00d95f;
      }
    </style>
  </defs>
  <path id="_001-spotify" data-name="001-spotify" class="cls-1" d="M22.5,0A22.5,22.5,0,1,0,45,22.5,22.5,22.5,0,0,0,22.5,0Zm9.792,32.654a1.538,1.538,0,0,1-2.1.552,22.649,22.649,0,0,0-11.922-2.645,29.573,29.573,0,0,0-6.184.817,1.539,1.539,0,0,1-.816-2.967,32.037,32.037,0,0,1,6.82-.922,30.038,30.038,0,0,1,6.57.476,22.175,22.175,0,0,1,7.084,2.586A1.538,1.538,0,0,1,32.292,32.654Zm2.86-5.941a1.822,1.822,0,0,1-2.493.654c-4.789-2.8-10.322-3.249-14.121-3.133a35.038,35.038,0,0,0-7.325.967,1.823,1.823,0,0,1-.966-3.515,37.94,37.94,0,0,1,8.078-1.093,35.587,35.587,0,0,1,7.782.563A26.27,26.27,0,0,1,34.5,24.22,1.822,1.822,0,0,1,35.153,26.713Zm1.758-5.4a2.225,2.225,0,0,1-1.126-.306c-11.386-6.654-26.156-2.7-26.3-2.657a2.235,2.235,0,0,1-1.187-4.31A46.533,46.533,0,0,1,18.2,12.7a43.658,43.658,0,0,1,9.546.691,32.22,32.22,0,0,1,10.293,3.757,2.236,2.236,0,0,1-1.13,4.166Z" transform="translate(6370.5 -2128)"/>
</svg>
