<svg xmlns="http://www.w3.org/2000/svg" viewBox="6548 -2128 45 45">
  <defs>
    <style>
      .cls-1 {
        fill: #40a459;
      }

      .cls-2 {
        fill: #378b4e;
      }

      .cls-3 {
        fill: #898790;
      }

      .cls-4 {
        fill: #7a797f;
      }

      .cls-5 {
        fill: #3d9ae3;
      }

      .cls-6 {
        fill: #1d81ce;
      }

      .cls-7 {
        fill: #fff;
      }

      .cls-8 {
        fill: #e0e0e3;
      }

      .cls-9 {
        fill: #ffce00;
      }

      .cls-10 {
        fill: #cd2900;
      }

      .cls-11 {
        fill: #891d00;
      }
    </style>
  </defs>
  <g id="google-maps" transform="translate(6547.723 -2128)">
    <ellipse id="Ellipse_84" data-name="Ellipse 84" class="cls-1" cx="22.476" cy="22.451" rx="22.476" ry="22.451" transform="translate(0.277 0.049)"/>
    <path id="Path_342" data-name="Path 342" class="cls-2" d="M225.334.555c-.171,0-.341,0-.511.006l-.13,0q-.243.007-.485.018l-.125.007-.367.023-.184.013q-.212.017-.424.038l-.218.023-.261.03L222.4.745a22.45,22.45,0,0,1,0,44.522l.226.028.261.03.218.023q.212.021.424.038l.184.013q.183.013.367.023l.125.007q.242.012.485.018l.13,0c.17,0,.34.006.511.006a22.451,22.451,0,1,0,0-44.9Z" transform="translate(-202.581 -0.506)"/>
    <path id="Path_343" data-name="Path 343" class="cls-3" d="M222.4,141.757l9.376-5.375s10.256,2.182,12.624-2.132l.747-1.361.649,1.41a22.483,22.483,0,0,1-7.813,28.017l-.638.434Z" transform="translate(-202.582 -121.209)"/>
    <path id="Path_344" data-name="Path 344" class="cls-4" d="M380.713,144.816a22.331,22.331,0,0,0-2.719-10.714l-.688,1.254a34.223,34.223,0,0,1-3.016,4.46,22.459,22.459,0,0,1-6.161,21.011l2.1,3.047A22.529,22.529,0,0,0,380.713,144.816Z" transform="translate(-335.485 -122.316)"/>
    <path id="Path_345" data-name="Path 345" class="cls-5" d="M55.069,288.63a22.467,22.467,0,0,1-18.96-10.364l-.4-.619,12.517-10.541,14.407,20.226-.918.3A22.482,22.482,0,0,1,55.069,288.63Z" transform="translate(-32.316 -243.63)"/>
    <path id="Path_346" data-name="Path 346" class="cls-6" d="M232.9,474.211l-1.524-2.179a22.458,22.458,0,0,1-9.075,3.322,22.9,22.9,0,0,0,2.941.142A22.587,22.587,0,0,0,232.9,474.211Z" transform="translate(-202.486 -430.545)"/>
    <path id="Path_347" data-name="Path 347" class="cls-7" d="M177.978,236.715l3.909-2.928,15.028,20.942-.73.428a22.524,22.524,0,0,1-3.228,1.561l-.572.222Z" transform="translate(-162.066 -213.239)"/>
    <path id="Path_348" data-name="Path 348" class="cls-8" d="M325.833,442.957a22.4,22.4,0,0,0,4.53-2.212l-2.166-3.018a22.575,22.575,0,0,1-3.9,3.078Z" transform="translate(-295.514 -399.255)"/>
    <path id="Path_349" data-name="Path 349" class="cls-9" d="M13.3,145.265a22.448,22.448,0,0,1-1.557-3.5l-.186-.708,26.369-18.333,3.909,2.928-28.152,20.3Z" transform="translate(-10.292 -111.938)"/>
    <path id="Path_350" data-name="Path 350" class="cls-10" d="M296.764,21.992c-1.383-1.442-8.279-8.855-8.279-13.158a8.844,8.844,0,0,1,17.687,0c0,4.3-6.9,11.715-8.279,13.158h0a.782.782,0,0,1-1.129,0Z" transform="translate(-262.85)"/>
    <path id="Path_351" data-name="Path 351" class="cls-11" d="M347.975,52.333a3.953,3.953,0,1,1,3.958-3.953A3.96,3.96,0,0,1,347.975,52.333Z" transform="translate(-313.496 -40.521)"/>
    <path id="Path_352" data-name="Path 352" class="cls-7" d="M96.545,90.351a4.645,4.645,0,0,0,4.642-4.637.733.733,0,0,0-.733-.732H97.522a.732.732,0,1,0,0,1.464h2.113a3.174,3.174,0,1,1-.991-3.112.732.732,0,1,0,.97-1.1,4.639,4.639,0,1,0-3.069,8.115Z" transform="translate(-83.564 -73.952)"/>
  </g>
</svg>
