<svg xmlns="http://www.w3.org/2000/svg" viewBox="6212.5 -2116.299 19 12.86">
  <defs>
    <style>
      .cls-1 {
        fill: #b9b9b9;
      }
    </style>
  </defs>
  <g id="Group_571" data-name="Group 571" transform="translate(5888 -2604)">
    <path id="Path_611" data-name="Path 611" class="cls-1" d="M57.69,110.038a16.289,16.289,0,0,1-4.69.342c5.264,3.74,9.654.847,12.17-1.78A8.378,8.378,0,0,1,57.69,110.038Z" transform="translate(276.036 388.395)"/>
    <path id="Path_612" data-name="Path 612" class="cls-1" d="M182.5,59.054a18.918,18.918,0,0,1,1.087,2.354,17.464,17.464,0,0,0,2.294-2.97A17.44,17.44,0,0,0,184.263,57,20.7,20.7,0,0,1,182.5,59.054Z" transform="translate(157.619 435.579)"/>
    <path id="Path_613" data-name="Path 613" class="cls-1" d="M204.718,54.6c-.454-.659-.907-1.258-1.352-1.8-.086.12-.171.24-.265.359A17.436,17.436,0,0,1,204.718,54.6Z" transform="translate(138.782 439.419)"/>
    <path id="Path_614" data-name="Path 614" class="cls-1" d="M51.3,21.631Z" transform="translate(277.591 467.926)"/>
    <path id="Path_615" data-name="Path 615" class="cls-1" d="M114.193,81a13.632,13.632,0,0,1-6.393,3.8,8.358,8.358,0,0,0,7.48-1.446h0A18.357,18.357,0,0,0,114.193,81Z" transform="translate(225.926 413.633)"/>
    <path id="Path_616" data-name="Path 616" class="cls-1" d="M4.391,16.47h0a17.341,17.341,0,0,0-3.055,2.756h0A16.819,16.819,0,0,0,0,20.938a13.1,13.1,0,0,1,1.575-1.386,13.319,13.319,0,0,1,8.832-2.961A8.625,8.625,0,0,0,4.391,16.47Z" transform="translate(324.5 473.079)"/>
    <path id="Path_617" data-name="Path 617" class="cls-1" d="M128.4,25.673a12.453,12.453,0,0,0-6.8-2.773,9.85,9.85,0,0,1,4.562,3.886c.223.334.436.693.65,1.078a19.766,19.766,0,0,0,1.763-2.054A1.332,1.332,0,0,1,128.4,25.673Z" transform="translate(213.307 466.76)"/>
    <path id="Path_618" data-name="Path 618" class="cls-1" d="M7.035,62.487A18.367,18.367,0,0,1,1.575,57.6,13.1,13.1,0,0,0,0,58.986a20.189,20.189,0,0,0,4.536,4.759h0a16.28,16.28,0,0,0,4.69-.342A10.765,10.765,0,0,1,7.035,62.487Z" transform="translate(324.5 435.03)"/>
    <path id="Path_619" data-name="Path 619" class="cls-1" d="M64.557,4.523C59.465-1.613,54.621-.432,51.3,1.853a8.654,8.654,0,0,1,6.017.111,12.412,12.412,0,0,1,6.8,2.773c.06.043.12.094.18.137.077-.111.171-.231.257-.351Z" transform="translate(277.591 487.696)"/>
    <path id="Path_620" data-name="Path 620" class="cls-1" d="M77.79,41.47a1.994,1.994,0,0,1,.034.325,1.737,1.737,0,1,1-.548-1.267c.325-.325.65-.659.882-.9a2.991,2.991,0,1,0,.933,2.165,2.744,2.744,0,0,0-.051-.539C78.7,41.308,78.244,41.393,77.79,41.47Z" transform="translate(257.656 452.221)"/>
    <path id="Path_621" data-name="Path 621" class="cls-1" d="M90.627,53.971a1.732,1.732,0,1,0,.548,1.258,1.354,1.354,0,0,0-.034-.325c-.8.145-1.592.282-1.7.325A9.421,9.421,0,0,1,90.627,53.971Z" transform="translate(244.306 438.779)"/>
  </g>
</svg>
