<svg xmlns="http://www.w3.org/2000/svg" xmlns:xlink="http://www.w3.org/1999/xlink" viewBox="6091 -2211 61.75 61.75">
  <defs>
    <style>
      .cls-1 {
        fill: #31f7e4;
      }

      .cls-2 {
        fill: #fdcc34;
      }

      .cls-3 {
        fill: none;
      }

      .cls-4 {
        fill: #fd5a4c;
      }

      .cls-5 {
        fill: #fff;
        opacity: 0.441;
      }

      .cls-6 {
        clip-path: url(#clip-path);
      }

      .cls-7 {
        clip-path: url(#clip-path-2);
      }

      .cls-8 {
        clip-path: url(#clip-path-3);
      }

      .cls-9 {
        fill: #ff398a;
      }

      .cls-10 {
        clip-path: url(#clip-path-4);
      }

      .cls-11 {
        fill: #191919;
      }

      .cls-12 {
        filter: url(#Ellipse_85);
      }
    </style>
    <filter id="Ellipse_85" x="6091" y="-2211" width="61.75" height="61.75" filterUnits="userSpaceOnUse">
      <feOffset dy="3" input="SourceAlpha"/>
      <feGaussianBlur stdDeviation="3" result="blur"/>
      <feFlood flood-opacity="0.161"/>
      <feComposite operator="in" in2="blur"/>
      <feComposite in="SourceGraphic"/>
    </filter>
    <clipPath id="clip-path">
      <path id="Path_196" data-name="Path 196" class="cls-1" d="M22.852,45.7A22.852,22.852,0,1,1,45.7,22.852,22.884,22.884,0,0,1,22.852,45.7Zm0-42.262a19.41,19.41,0,1,0,19.342,19.41A19.447,19.447,0,0,0,22.852,3.442Z"/>
    </clipPath>
    <clipPath id="clip-path-2">
      <path id="Path_198" data-name="Path 198" class="cls-2" d="M22.852,45.7A22.852,22.852,0,1,1,45.7,22.852,22.884,22.884,0,0,1,22.852,45.7Zm0-42.262a19.41,19.41,0,1,0,19.342,19.41A19.447,19.447,0,0,0,22.852,3.442Z"/>
    </clipPath>
    <clipPath id="clip-path-3">
      <path id="Path_200" data-name="Path 200" class="cls-3" d="M22.852,45.7A22.852,22.852,0,1,1,45.7,22.852,22.884,22.884,0,0,1,22.852,45.7Zm0-42.262a19.41,19.41,0,1,0,19.342,19.41A19.447,19.447,0,0,0,22.852,3.442Z"/>
    </clipPath>
    <clipPath id="clip-path-4">
      <path id="Path_202" data-name="Path 202" class="cls-4" d="M22.852,45.7A22.852,22.852,0,1,1,45.7,22.852,22.884,22.884,0,0,1,22.852,45.7Zm0-42.262a19.41,19.41,0,1,0,19.342,19.41A19.447,19.447,0,0,0,22.852,3.442Z"/>
    </clipPath>
  </defs>
  <g id="Group_728" data-name="Group 728" transform="translate(604 -7354)">
    <g class="cls-12" transform="matrix(1, 0, 0, 1, -604, 7354)">
      <circle id="Ellipse_85-2" data-name="Ellipse 85" class="cls-5" cx="21.875" cy="21.875" r="21.875" transform="translate(6100 -2205)"/>
    </g>
    <g id="Group_727" data-name="Group 727" transform="translate(-1184 -1746)">
      <g id="Group_180" data-name="Group 180" class="cls-6" transform="matrix(0.993, -0.122, 0.122, 0.993, 6676, 6896.57)">
        <path id="Path_195" data-name="Path 195" class="cls-1" d="M27.532,23.678H3.855L0,12.8,3.855,0H27.532Z" transform="translate(18.997 22.852)"/>
      </g>
      <g id="Group_181" data-name="Group 181" class="cls-7" transform="matrix(0.993, -0.122, 0.122, 0.993, 6676, 6896.57)">
        <path id="Path_197" data-name="Path 197" class="cls-2" d="M27.742,3.029A7.589,7.589,0,0,0,20.79,9.774a29.256,29.256,0,0,1-4.405,11.219c-.688,1.239-13.078,8.4-15.9,4.956S8.056,3.579,8.607,3.855,28.361,0,28.361,0Z" transform="translate(-2.55 -3.029)"/>
      </g>
      <g id="Group_182" data-name="Group 182" class="cls-8" transform="matrix(0.993, -0.122, 0.122, 0.993, 6676, 6896.57)">
        <path id="Path_199" data-name="Path 199" class="cls-9" d="M27.945,23.058S24.3,32.9,21.131,27.188A84.2,84.2,0,0,0,14.11,16.313c-.206-.069-10.393-5.025-10.393-5.025L0,6.195A6.814,6.814,0,0,1,5.162,2.409S12.6,0,13.078,0s9.5,3.1,10.049,4.061S27.945,23.058,27.945,23.058Z" transform="translate(19.135 -2.478)"/>
      </g>
      <g id="Group_183" data-name="Group 183" class="cls-10" transform="matrix(0.993, -0.122, 0.122, 0.993, 6676, 6896.57)">
        <path id="Path_201" data-name="Path 201" class="cls-4" d="M.551,0s4.13,2.684,3.717,1.858c0,0,1.1,3.992,1.445,4.061S23.678,21.269,23.678,21.269s5.231,4.268-3.373,4.612a18.211,18.211,0,0,1-13.7-5.506S0,12.39,0,11.7.551,0,.551,0Z" transform="translate(-0.895 20.993)"/>
      </g>
    </g>
    <path id="Path_353" data-name="Path 353" class="cls-11" d="M1472.9,2604.8v14.26l14.506-7.154Z" transform="translate(4038.1 2559.2)"/>
  </g>
</svg>
