<svg xmlns="http://www.w3.org/2000/svg" xmlns:xlink="http://www.w3.org/1999/xlink" viewBox="8023.7 -2147.9 32.6 45.909">
  <defs>
    <style>
      .cls-1 {
        fill: #e8e5e5;
      }

      .cls-2 {
        fill: #007aff;
      }

      .cls-3 {
        fill: #a8a8a8;
      }

      .cls-4, .cls-6 {
        fill: none;
      }

      .cls-4 {
        stroke: #a7a7a7;
      }

      .cls-5 {
        stroke: none;
      }

      .cls-7 {
        filter: url(#circle);
      }

      .cls-8 {
        filter: url(#oval);
      }
    </style>
    <filter id="oval" x="8023.7" y="-2147.9" width="32.6" height="45.909" filterUnits="userSpaceOnUse">
      <feOffset dy="3" input="SourceAlpha"/>
      <feGaussianBlur stdDeviation="3" result="blur"/>
      <feFlood flood-color="#fff" flood-opacity="0.161"/>
      <feComposite operator="in" in2="blur"/>
      <feComposite in="SourceGraphic"/>
    </filter>
    <filter id="circle" x="8027.371" y="-2144.358" width="25.258" height="25.258" filterUnits="userSpaceOnUse">
      <feOffset dy="3" input="SourceAlpha"/>
      <feGaussianBlur stdDeviation="1.5" result="blur-2"/>
      <feFlood flood-opacity="0.161"/>
      <feComposite operator="in" in2="blur-2"/>
      <feComposite in="SourceGraphic"/>
    </filter>
  </defs>
  <g id="Group_817" data-name="Group 817" transform="translate(7702 -2655)">
    <g class="cls-8" transform="matrix(1, 0, 0, 1, -7702, 2655)">
      <path id="oval-2" data-name="oval" class="cls-1" d="M16.482,0H27.427c4.706,0,8.482,3.25,8.482,7.3h0c0,4.05-3.776,7.3-8.482,7.3H16.482C11.776,14.6,8,11.35,8,7.3H8C8,3.25,11.776,0,16.482,0Z" transform="translate(8032.7 -2105.99) rotate(-90)"/>
    </g>
    <g class="cls-7" transform="matrix(1, 0, 0, 1, -7702, 2655)">
      <path id="circle-2" data-name="circle" class="cls-2" d="M8.129,0A8.129,8.129,0,1,1,0,8.129,8.129,8.129,0,0,1,8.129,0Z" transform="translate(8031.87 -2126.6) rotate(-90)"/>
    </g>
    <g id="Group_816" data-name="Group 816" transform="translate(0 1)">
      <rect id="Rectangle_100" data-name="Rectangle 100" class="cls-3" width="6.659" height="5.549" rx="2" transform="translate(334.641 531.724)"/>
      <g id="Ellipse_81" data-name="Ellipse 81" class="cls-4" transform="translate(335.913 529.727)">
        <circle class="cls-5" cx="2.184" cy="2.184" r="2.184"/>
        <circle class="cls-6" cx="2.184" cy="2.184" r="1.684"/>
      </g>
      <circle id="Ellipse_82" data-name="Ellipse 82" class="cls-1" cx="1.098" cy="1.098" r="1.098" transform="translate(336.861 534.095)"/>
    </g>
  </g>
</svg>
