<svg xmlns="http://www.w3.org/2000/svg" viewBox="6216.99 -2030 30.386 30.386">
  <defs>
    <style>
      .cls-1 {
        fill: #fd5a4c;
      }

      .cls-2 {
        fill: #fff;
      }
    </style>
  </defs>
  <g id="Group_814" data-name="Group 814" transform="translate(5894 -2655)">
    <path id="Path_560" data-name="Path 560" class="cls-1" d="M15.343.15A15.193,15.193,0,1,1,.15,15.343,15.193,15.193,0,0,1,15.343.15Z" transform="translate(322.84 624.85)"/>
    <path id="Path_561" data-name="Path 561" class="cls-2" d="M26.365,25.166a2.62,2.62,0,0,0,2.619-2.619V18.619a2.619,2.619,0,1,0-5.238,0v3.928A2.62,2.62,0,0,0,26.365,25.166Zm-1.746-6.547a1.746,1.746,0,0,1,3.492,0v3.928a1.746,1.746,0,1,1-3.492,0Zm6.111,3.928a.436.436,0,0,0-.873,0,3.492,3.492,0,1,1-6.984,0,.436.436,0,0,0-.873,0,4.365,4.365,0,0,0,3.928,4.343v2.2H24.619a.436.436,0,1,0,0,.873h3.492a.436.436,0,1,0,0-.873H26.8v-2.2A4.365,4.365,0,0,0,30.73,22.547Z" transform="translate(311.466 617.729)"/>
  </g>
</svg>
