<svg xmlns="http://www.w3.org/2000/svg" viewBox="6464 -2128 45 45">
  <defs>
    <style>
      .cls-1 {
        fill: #e24e42;
      }

      .cls-2 {
        fill: #fff;
      }
    </style>
  </defs>
  <g id="_003-youtube" data-name="003-youtube" transform="translate(6464 -2128)">
    <path id="Path_339" data-name="Path 339" class="cls-1" d="M22.5,0A22.5,22.5,0,1,1,0,22.5,22.5,22.5,0,0,1,22.5,0Z"/>
    <path id="Path_340" data-name="Path 340" class="cls-2" d="M75.862,64.506a2.649,2.649,0,0,0,1.676-.548,1.6,1.6,0,0,0,.608-1.329V59.217a1.5,1.5,0,0,0-.619-1.236,2.537,2.537,0,0,0-1.595-.478,2.858,2.858,0,0,0-1.7.453,1.429,1.429,0,0,0-.633,1.222V62.6a1.634,1.634,0,0,0,.616,1.34A2.561,2.561,0,0,0,75.862,64.506Zm-.744-5.162a.365.365,0,0,1,.2-.316,1.014,1.014,0,0,1,.523-.12,1.146,1.146,0,0,1,.564.12.361.361,0,0,1,.214.316v3.243a.429.429,0,0,1-.211.378,1.039,1.039,0,0,1-.567.136.9.9,0,0,1-.537-.135.44.44,0,0,1-.187-.38ZM80.57,64.5a1.756,1.756,0,0,0,.769-.287,2.879,2.879,0,0,0,.766-.638v.758h1.329V57.493H82.106v5.193a1.884,1.884,0,0,1-.409.367.755.755,0,0,1-.371.145.31.31,0,0,1-.27-.11.568.568,0,0,1-.087-.349V57.494H79.643v5.716a1.508,1.508,0,0,0,.233.916A.872.872,0,0,0,80.57,64.5Zm3.864,2.828H68.375a4.535,4.535,0,0,0-4.622,4.441v3.755a4.535,4.535,0,0,0,4.622,4.442H84.435a4.536,4.536,0,0,0,4.622-4.442V71.771A4.535,4.535,0,0,0,84.435,67.33Zm-13.67,3.811h-1.42v5.881H67.97V71.141H66.55v-1h4.215S70.765,71.141,70.765,71.141ZM75,77.1H73.522v-.61a3.162,3.162,0,0,1-.856.513,2.246,2.246,0,0,1-.859.179,1.073,1.073,0,0,1-.773-.25.984.984,0,0,1-.26-.743V71.549h1.481v4.26a.386.386,0,0,0,.09.284.438.438,0,0,0,.305.087,1.021,1.021,0,0,0,.413-.117,1.9,1.9,0,0,0,.46-.3V71.547H75S75,77.1,75,77.1Zm5.605-1.057a1.038,1.038,0,0,1-.344.837,1.486,1.486,0,0,1-.993.291,2.413,2.413,0,0,1-.766-.111,1.927,1.927,0,0,1-.626-.349v.394H76.4V70.138h1.478v2.246a2.407,2.407,0,0,1,.627-.357,1.924,1.924,0,0,1,.675-.122,1.537,1.537,0,0,1,1.059.326,1.223,1.223,0,0,1,.368.962S80.608,76.046,80.608,76.046Zm5.633-1.568H83.514v1a.912.912,0,0,0,.139.584.619.619,0,0,0,.484.162.71.71,0,0,0,.5-.138.9.9,0,0,0,.144-.609v-.242h1.467v.273a1.451,1.451,0,0,1-.539,1.233,2.6,2.6,0,0,1-1.6.413,2.361,2.361,0,0,1-1.51-.439,1.459,1.459,0,0,1-.551-1.207V73.119a1.339,1.339,0,0,1,.608-1.131,2.609,2.609,0,0,1,1.561-.435,2.44,2.44,0,0,1,1.506.4,1.376,1.376,0,0,1,.525,1.16S86.242,74.478,86.242,74.478ZM69.969,64.522h1.678V60.434L73.6,54.668H71.894l-1.038,3.94h-.107l-1.088-3.94H67.969l2,5.95S69.969,64.522,69.969,64.522Zm8.522,8.2-.311.051-.3.156v3.2a1.288,1.288,0,0,0,.347.181l.353.055a.585.585,0,0,0,.4-.11.444.444,0,0,0,.127-.352V73.249a.487.487,0,0,0-.153-.4A.694.694,0,0,0,78.491,72.72Z" transform="translate(-53.905 -46.223)"/>
    <path id="Path_341" data-name="Path 341" class="cls-2" d="M192.743,170.021a.677.677,0,0,0-.489.146.645.645,0,0,0-.146.478v.537h1.261v-.537a.537.537,0,0,0-.626-.624Z" transform="translate(-162.432 -143.758)"/>
  </g>
</svg>
