<svg xmlns="http://www.w3.org/2000/svg" viewBox="7986 -2071.991 108.366 108.369">
  <defs>
    <style>
      .cls-1 {
        fill: #007aff;
      }

      .cls-2 {
        fill: #fff;
      }
    </style>
  </defs>
  <g id="Group_815" data-name="Group 815" transform="translate(7702 -2655)">
    <path id="Path_326" data-name="Path 326" class="cls-1" d="M54.333.15A54.184,54.184,0,1,1,.15,54.334,54.184,54.184,0,0,1,54.333.15Z" transform="translate(283.85 582.859)"/>
    <g id="Group_454" data-name="Group 454" transform="translate(-0.747 198.5)">
      <path id="path" class="cls-2" d="M12.873,16.867a2.38,2.38,0,0,0,2.373-2.373V7.373a2.373,2.373,0,1,0-4.747,0v7.12A2.38,2.38,0,0,0,12.873,16.867Z" transform="translate(326.373 424.5)"/>
      <path id="path-2" data-name="path" class="cls-2" d="M17.993,13.56V10H16.807v3.679a3.65,3.65,0,0,1-3.56,3.56,3.57,3.57,0,0,1-3.56-3.56V10H8.5v3.56a4.635,4.635,0,0,0,4.153,4.628V20.68H9.687v1.187h7.12V20.68H13.84V18.307A4.841,4.841,0,0,0,17.993,13.56Z" transform="translate(326 425.433)"/>
    </g>
  </g>
</svg>
