<svg xmlns="http://www.w3.org/2000/svg" viewBox="5768.525 1093 25.913 25.914">
  <defs>
    <style>
      .cls-1 {
        fill: #fff;
      }
    </style>
  </defs>
  <g id="Group_819" data-name="Group 819" transform="translate(20.099 65.557)">
    <path id="Path_700" data-name="Path 700" class="cls-1" d="M5752.774,1031.98l-3.4,5.763v5.181l2.221,4.3,1.177,1.368-1.177,1.517-2.221,1.9,1.392.831,3.018-.831,1.827-1.124,2.455,1.124,4.411.831,7.114-2.735,3.89-6.409v-7.038l-3.89-5.817-7.114-2.71-5.74,1.173Z" transform="translate(-0.132 -0.096)"/>
    <path id="Path_699" data-name="Path 699" d="M22.129,3.8A12.954,12.954,0,0,0,2.992,21.219a4.957,4.957,0,0,1-2.076,2.3,1.215,1.215,0,0,0,.351,2.29,6.7,6.7,0,0,0,1.025.077,7.735,7.735,0,0,0,4.558-1.512A12.953,12.953,0,0,0,22.129,3.8ZM21.082,21.071A11.475,11.475,0,0,1,7.155,22.857a.737.737,0,0,0-.9.115.243.243,0,0,0-.06.044A6.325,6.325,0,0,1,2.29,24.408H2.285a7.254,7.254,0,0,0,2.224-2.953.757.757,0,0,0,.038-.477.769.769,0,0,0-.181-.416,11.476,11.476,0,1,1,16.716.51Z" transform="translate(5748.407 1027.443)"/>
    <circle id="Ellipse_116" data-name="Ellipse 116" cx="0.909" cy="0.909" r="0.909" transform="translate(5760.466 1039.491)"/>
    <circle id="Ellipse_117" data-name="Ellipse 117" cx="0.909" cy="0.909" r="0.909" transform="translate(5765.156 1039.491)"/>
    <circle id="Ellipse_118" data-name="Ellipse 118" cx="0.909" cy="0.909" r="0.909" transform="translate(5755.776 1039.491)"/>
  </g>
</svg>
