<svg xmlns="http://www.w3.org/2000/svg" viewBox="5982.001 -4931 17.458 22.957">
  <defs>
    <style>
      .cls-1, .cls-2 {
        fill: #0084ff;
      }

      .cls-1 {
        opacity: 0.69;
      }
    </style>
  </defs>
  <g id="Group_661" data-name="Group 661" transform="translate(5883 -5135.521)">
    <path id="Path_24" data-name="Path 24" class="cls-1" d="M109.157,11.228c2.552,0,4.622-2.513,4.622-5.614S113.1,0,109.157,0s-4.622,2.513-4.622,5.614S106.6,11.228,109.157,11.228Z" transform="translate(-1.426 204.521)"/>
    <path id="Path_27" data-name="Path 27" class="cls-2" d="M59.357,185.654c-.086-5.4-.791-6.94-6.189-7.914a3.792,3.792,0,0,1-5.062,0c-5.339.964-6.087,2.48-6.185,7.739-.008.429-.012.452-.013.4,0,.093,0,.266,0,.567,0,0,1.285,2.591,8.729,2.591s8.729-2.591,8.729-2.591c0-.194,0-.328,0-.42A3.475,3.475,0,0,1,59.357,185.654Z" transform="translate(57.093 38.44)"/>
  </g>
</svg>
