<svg xmlns="http://www.w3.org/2000/svg" viewBox="5778.682 -4370 27.238 27.238">
  <path id="_005-user-1" data-name="005-user-1" d="M27.238,13.619A13.619,13.619,0,1,0,4.42,23.652l-.013.011.442.372c.029.024.06.044.089.068.235.195.478.379.726.558.08.058.16.116.242.172q.4.273.813.519l.182.1c.3.173.614.336.931.485l.07.032A13.5,13.5,0,0,0,11.2,27.017l.091.016c.359.062.721.111,1.088.145l.134.01c.365.03.735.05,1.109.05s.737-.019,1.1-.049l.138-.01q.546-.05,1.079-.142l.093-.017A13.5,13.5,0,0,0,19.276,26l.113-.052q.458-.215.9-.464l.217-.125c.266-.157.528-.321.783-.5.092-.062.181-.128.272-.194.217-.156.431-.318.638-.487.046-.037.1-.069.141-.107l.453-.378-.013-.011A13.584,13.584,0,0,0,27.238,13.619Zm-26.248,0a12.629,12.629,0,1,1,21,9.441,3.712,3.712,0,0,0-.442-.266l-4.193-2.1a1.1,1.1,0,0,1-.61-.987V18.246c.1-.12.2-.256.306-.4a10.092,10.092,0,0,0,1.3-2.537,1.8,1.8,0,0,0,1.033-1.629V11.92a1.8,1.8,0,0,0-.439-1.173V8.435a3.994,3.994,0,0,0-.933-2.9,5.574,5.574,0,0,0-4.391-1.569A5.576,5.576,0,0,0,9.228,5.531a3.994,3.994,0,0,0-.933,2.9v2.311a1.8,1.8,0,0,0-.439,1.173v1.756a1.8,1.8,0,0,0,.664,1.4,9.306,9.306,0,0,0,1.532,3.164v1.433a1.1,1.1,0,0,1-.575.97L5.56,22.775a3.579,3.579,0,0,0-.372.236A12.6,12.6,0,0,1,.99,13.619ZM21.027,23.837c-.173.126-.35.248-.528.364-.082.053-.164.107-.248.159-.234.145-.471.282-.714.411l-.161.083a12.619,12.619,0,0,1-1.727.731l-.063.021q-.466.155-.943.273h0c-.321.079-.646.145-.973.2l-.027,0c-.308.05-.618.086-.929.113l-.165.012c-.308.023-.617.038-.927.038s-.627-.015-.938-.039l-.161-.012c-.314-.028-.626-.065-.936-.115l-.042-.007a12.582,12.582,0,0,1-1.926-.481l-.058-.02q-.467-.159-.922-.353l-.006,0c-.286-.123-.567-.26-.844-.4l-.108-.056c-.253-.135-.5-.281-.745-.434l-.215-.138c-.225-.147-.447-.3-.663-.462l-.066-.052.048-.027L9.95,21.509a2.094,2.094,0,0,0,1.092-1.839V17.886l-.114-.138a8.269,8.269,0,0,1-1.486-3.078l-.045-.2-.169-.109a.821.821,0,0,1-.381-.689V11.919a.809.809,0,0,1,.276-.606l.163-.148V8.407l0-.065a2.983,2.983,0,0,1,.691-2.159,4.667,4.667,0,0,1,3.646-1.231,4.679,4.679,0,0,1,3.638,1.221,3.033,3.033,0,0,1,.7,2.17l0,2.823.163.148a.81.81,0,0,1,.276.606v1.756a.827.827,0,0,1-.585.78l-.246.076-.079.245a9.162,9.162,0,0,1-1.236,2.492c-.13.183-.256.346-.364.47l-.123.14V19.71a2.082,2.082,0,0,0,1.158,1.873l4.193,2.1.079.041C21.135,23.761,21.081,23.8,21.027,23.837Z" transform="translate(5778.682 -4370)"/>
</svg>
