<svg xmlns="http://www.w3.org/2000/svg" viewBox="7568 -3997.5 25 25">
  <defs>
    <style>
      .cls-1 {
        fill: #fd5a4c;
      }

      .cls-2 {
        fill: #fff;
      }
    </style>
  </defs>
  <g id="Group_574" data-name="Group 574" transform="translate(7923 -1758)">
    <circle id="ellipse" class="cls-1" cx="12.5" cy="12.5" r="12.5" transform="translate(-355 -2239.5)"/>
    <g id="Group_445" data-name="Group 445" transform="translate(-681 -2664)">
      <path id="path" class="cls-2" d="M12.5,15a2.006,2.006,0,0,0,2-2V7a2,2,0,0,0-4,0v6A2.006,2.006,0,0,0,12.5,15Z" transform="translate(326 424.5)"/>
      <path id="path-2" data-name="path" class="cls-2" d="M16.5,13V10h-1v3.1a3.076,3.076,0,0,1-3,3,3.009,3.009,0,0,1-3-3V10h-1v3A3.906,3.906,0,0,0,12,16.9V19H9.5v1h6V19H13V17A4.08,4.08,0,0,0,16.5,13Z" transform="translate(326 424.5)"/>
    </g>
  </g>
</svg>
