<svg xmlns="http://www.w3.org/2000/svg" viewBox="6418.818 -4972 20.973 16.479">
  <defs>
    <style>
      .cls-1, .cls-2 {
        fill: #0084ff;
      }

      .cls-1 {
        opacity: 0.69;
      }
    </style>
  </defs>
  <g id="Group_658" data-name="Group 658" transform="translate(6322 -5252)">
    <path id="Path_666" data-name="Path 666" class="cls-1" d="M2.013,59.9q.4.281,2.4,1.668T7.479,63.7q.117.082.5.357t.632.445q.252.17.609.38a3.532,3.532,0,0,0,.673.316,1.855,1.855,0,0,0,.585.105H10.5a1.856,1.856,0,0,0,.585-.105,3.535,3.535,0,0,0,.673-.316q.357-.211.609-.38T13,64.06q.38-.275.5-.357l5.477-3.8A5.56,5.56,0,0,0,20.4,58.46a3.091,3.091,0,0,0,.574-1.767A1.888,1.888,0,0,0,19.1,54.82H1.872a1.671,1.671,0,0,0-1.387.608A2.362,2.362,0,0,0,0,56.95a2.734,2.734,0,0,0,.644,1.6A5.809,5.809,0,0,0,2.013,59.9Z" transform="translate(96.818 225.18)"/>
    <path id="Path_667" data-name="Path 667" class="cls-2" d="M19.8,185.455q-3.838,2.6-5.828,4.038-.667.491-1.083.767a6.682,6.682,0,0,1-1.106.562,3.368,3.368,0,0,1-1.287.287h-.024a3.369,3.369,0,0,1-1.287-.287,6.685,6.685,0,0,1-1.106-.562q-.415-.275-1.082-.767-1.58-1.159-5.817-4.038A6.2,6.2,0,0,1,0,184.437v9.292a1.8,1.8,0,0,0,.55,1.323,1.8,1.8,0,0,0,1.323.55H19.1a1.878,1.878,0,0,0,1.872-1.873v-9.292A6.454,6.454,0,0,1,19.8,185.455Z" transform="translate(96.818 100.876)"/>
  </g>
</svg>
        